<svg width="32" height="32" viewBox="0 0 32 32" fill="none" xmlns="http://www.w3.org/2000/svg">
<path d="M27.0612 15.9386C27.201 16.078 27.312 16.2436 27.3877 16.4259C27.4634 16.6082 27.5024 16.8037 27.5024 17.0011C27.5024 17.1986 27.4634 17.394 27.3877 17.5764C27.312 17.7587 27.201 17.9243 27.0612 18.0636L17.0612 28.0636C16.9218 28.2035 16.7563 28.3144 16.5739 28.3901C16.3916 28.4658 16.1961 28.5048 15.9987 28.5048C15.8013 28.5048 15.6058 28.4658 15.4235 28.3901C15.2411 28.3144 15.0756 28.2035 14.9362 28.0636L4.9362 18.0636C4.79667 17.9241 4.68599 17.7585 4.61047 17.5762C4.53496 17.3939 4.49609 17.1985 4.49609 17.0011C4.49609 16.8038 4.53496 16.6084 4.61047 16.4261C4.68599 16.2438 4.79667 16.0782 4.9362 15.9386C5.07573 15.7991 5.24137 15.6884 5.42367 15.6129C5.60598 15.5374 5.80137 15.4985 5.9987 15.4985C6.19602 15.4985 6.39141 15.5374 6.57372 15.6129C6.75602 15.6884 6.92167 15.7991 7.0612 15.9386L15.9999 24.8749L24.9387 15.9349C25.0782 15.7957 25.2439 15.6853 25.4261 15.6102C25.6083 15.535 25.8036 15.4965 26.0007 15.4968C26.1978 15.4972 26.393 15.5364 26.5749 15.6122C26.7569 15.688 26.9221 15.7989 27.0612 15.9386ZM14.9362 18.0636C15.0756 18.2035 15.2411 18.3144 15.4235 18.3901C15.6058 18.4658 15.8013 18.5048 15.9987 18.5048C16.1961 18.5048 16.3916 18.4658 16.5739 18.3901C16.7563 18.3144 16.9218 18.2035 17.0612 18.0636L27.0612 8.06364C27.2007 7.92411 27.3114 7.75846 27.3869 7.57616C27.4624 7.39385 27.5013 7.19846 27.5013 7.00114C27.5013 6.80381 27.4624 6.60842 27.3869 6.42612C27.3114 6.24381 27.2007 6.07817 27.0612 5.93864C26.9217 5.79911 26.756 5.68843 26.5737 5.61291C26.3914 5.5374 26.196 5.49854 25.9987 5.49854C25.8014 5.49854 25.606 5.5374 25.4237 5.61291C25.2414 5.68843 25.0757 5.79911 24.9362 5.93864L15.9999 14.8749L7.0612 5.93864C6.7794 5.65684 6.39721 5.49854 5.9987 5.49854C5.60018 5.49854 5.21799 5.65684 4.9362 5.93864C4.6544 6.22043 4.49609 6.60262 4.49609 7.00114C4.49609 7.39965 4.6544 7.78184 4.9362 8.06364L14.9362 18.0636Z" fill="#E2E4E9"/>
</svg>
